FFmpeg version SVN-r25716, Copyright (c) 2000-2010 the FFmpeg developers  built on Nov 10 2010 12:23:18 with gcc 4.1.2 20080704 (Red Hat 4.1.2-48)  configuration: --enable-libmp3lame --enable-shared --disable-mmx --arch=x86_64  libavutil     50.33. 0 / 50.33. 0  libavcore      0.12. 1 /  0.12. 1  libavcodec    52.94. 4 / 52.94. 4  libavformat   52.84. 0 / 52.84. 0  libavdevice   52. 2. 2 / 52. 2. 2  libavfilter    1.59. 0 /  1.59. 0  libswscale     0.12. 0 /  0.12. 0Input #0, avi, from '/RAID10/data/converted_video_files/47290.avi':  Duration: 00:00:10.30, start: 0.000000, bitrate: 20982 kb/s    Stream #0.0: Video: msvideo1, rgb555le, 1024x1024, 20 tbr, 20 tbn, 20 tbc[buffer @ 0xca9510] w:1024 h:1024 pixfmt:rgb555le[ffsink @ 0xcc6de0] auto-inserting filter 'auto-inserted scaler 0' between the filter 'src' and the filter 'out'[scale @ 0xcc7100] w:1024 h:1024 fmt:rgb555le -> w:1024 h:1024 fmt:yuv420p flags:0x4Output #0, flv, to '/RAID10/data/converted_video_files/47290.flv':  Metadata:    encoder         : Lavf52.84.0    Stream #0.0: Video: flv, yuv420p, 1024x1024, q=2-31, 600 kb/s, 1k tbn, 24 tbcStream mapping:  Stream #0.0 -> #0.0Press [q] to stop encodingframe=    8 fps=  0 q=12.3 size=     601kB time=0.37 bitrate=13162.4kbits/s    frame=   17 fps= 14 q=31.0 size=     668kB time=0.83 bitrate=6566.4kbits/s    frame=   24 fps= 15 q=31.0 size=     680kB time=1.17 bitrate=4776.4kbits/s    frame=   35 fps= 17 q=31.0 size=     728kB time=1.75 bitrate=3411.5kbits/s    frame=   45 fps= 17 q=31.0 size=     774kB time=2.25 bitrate=2817.5kbits/s    frame=   55 fps= 18 q=31.0 size=     820kB time=2.75 bitrate=2441.5kbits/s    frame=   65 fps= 18 q=31.0 size=     864kB time=3.25 bitrate=2178.8kbits/s    frame=   76 fps= 18 q=31.0 size=     926kB time=3.79 bitrate=2001.2kbits/s    frame=   87 fps= 18 q=31.0 size=     983kB time=4.33 bitrate=1857.4kbits/s    frame=   98 fps= 19 q=31.0 size=    1038kB time=4.87 bitrate=1744.2kbits/s    frame=  109 fps= 19 q=24.8 size=    1088kB time=5.46 bitrate=1632.6kbits/s    frame=  120 fps= 19 q=31.0 size=    1116kB time=6.00 bitrate=1524.2kbits/s    frame=  130 fps= 19 q=31.0 size=    1166kB time=6.50 bitrate=1469.0kbits/s    frame=  141 fps= 19 q=31.0 size=    1214kB time=7.04 bitrate=1411.7kbits/s    frame=  151 fps= 19 q=31.0 size=    1261kB time=7.54 bitrate=1369.4kbits/s    frame=  160 fps= 19 q=31.0 size=    1306kB time=8.00 bitrate=1337.5kbits/s    frame=  168 fps= 19 q=31.0 size=    1321kB time=8.38 bitrate=1291.9kbits/s    frame=  178 fps= 19 q=31.0 size=    1368kB time=8.88 bitrate=1263.1kbits/s    frame=  188 fps= 19 q=31.0 size=    1416kB time=9.37 bitrate=1237.3kbits/s    frame=  198 fps= 19 q=31.0 size=    1464kB time=9.88 bitrate=1214.9kbits/s    frame=  206 fps= 18 q=31.0 size=    1508kB time=10.29 bitrate=1200.0kbits/s    frame=  206 fps= 18 q=31.0 Lsize=    1508kB time=10.29 bitrate=1200.0kbits/s    video:1504kB audio:0kB global headers:0kB muxing overhead 0.227634%